<?xml version="1.0" encoding="UTF-8" standalone="no"?>
<!DOCTYPE svg PUBLIC "-//W3C//DTD SVG 1.1//EN"
 "http://www.w3.org/Graphics/SVG/1.1/DTD/svg11.dtd">
<!-- Generated by graphviz version 2.38.0 (20140413.2041)
 -->
<!-- Title: TD Pages: 1 -->
<svg width="360pt" height="318pt"
 viewBox="0.00 0.00 360.00 317.93" xmlns="http://www.w3.org/2000/svg" xmlns:xlink="http://www.w3.org/1999/xlink">
<g id="graph0" class="graph" transform="scale(0.744571 0.744571) rotate(0) translate(4 423)">
<title>TD</title>
<polygon fill="white" stroke="none" points="-4,4 -4,-423 479.5,-423 479.5,4 -4,4"/>
<text text-anchor="middle" x="237.75" y="-7.8" font-family="Times New Roman,serif" font-size="14.00">A_model_graph</text>
<!-- C -->
<g id="node1" class="node"><title>C</title>
<g id="a_node1"><a xlink:title="C">
<polygon fill="#63b8ff" stroke="black" points="313,-347 259,-347 259,-311 313,-311 313,-347"/>
<text text-anchor="start" x="280" y="-324.8" font-family="Times New Roman,serif" font-size="14.00" fill="blue">C:</text>
</a>
</g>
</g>
<!-- I -->
<g id="node12" class="node"><title>I</title>
<g id="a_node12"><a xlink:title="I">
<polygon fill="#63b8ff" stroke="black" points="286,-275 232,-275 232,-239 286,-239 286,-275"/>
<text text-anchor="start" x="255" y="-252.8" font-family="Times New Roman,serif" font-size="14.00" fill="blue">I:</text>
</a>
</g>
</g>
<!-- C&#45;&gt;I -->
<g id="edge1" class="edge"><title>C&#45;&gt;I</title>
<path fill="none" stroke="black" d="M279.326,-310.697C276.285,-302.813 272.617,-293.304 269.239,-284.546"/>
<polygon fill="black" stroke="black" points="272.462,-283.175 265.597,-275.104 265.931,-285.694 272.462,-283.175"/>
</g>
<!-- Y -->
<g id="node2" class="node"><title>Y</title>
<g id="a_node2"><a xlink:title="Y">
<polygon fill="#63b8ff" stroke="black" points="272,-131 218,-131 218,-95 272,-95 272,-131"/>
<text text-anchor="start" x="239" y="-108.8" font-family="Times New Roman,serif" font-size="14.00" fill="blue">Y:</text>
</a>
</g>
</g>
<!-- Y&#45;&gt;C -->
<g id="edge2" class="edge"><title>Y&#45;&gt;C</title>
<path fill="none" stroke="black" d="M255.19,-131.265C260.92,-141.436 267.92,-154.686 273,-167 285.761,-197.931 290.057,-205.907 295,-239 298.078,-259.606 295.458,-283.057 292.267,-300.712"/>
<polygon fill="black" stroke="black" points="288.763,-300.388 290.253,-310.878 295.63,-301.749 288.763,-300.388"/>
</g>
<!-- Y&#45;&gt;I -->
<g id="edge9" class="edge"><title>Y&#45;&gt;I</title>
<path fill="none" stroke="black" d="M249.77,-131.033C252.43,-141.35 255.501,-154.827 257,-167 259.535,-187.579 259.962,-211.031 259.795,-228.693"/>
<polygon fill="black" stroke="black" points="256.293,-228.808 259.627,-238.865 263.292,-228.924 256.293,-228.808"/>
</g>
<!-- ALFA -->
<g id="node3" class="node"><title>ALFA</title>
<g id="a_node3"><a xlink:title="ALFA">
<polygon fill="yellow" stroke="black" points="176,-203 122,-203 122,-167 176,-167 176,-203"/>
<text text-anchor="start" x="129" y="-180.8" font-family="Times New Roman,serif" font-size="14.00" fill="blue">ALFA:</text>
</a>
</g>
</g>
<!-- ALFA&#45;&gt;Y -->
<g id="edge6" class="edge"><title>ALFA&#45;&gt;Y</title>
<path fill="none" stroke="black" d="M172.73,-166.697C184.937,-157.796 199.985,-146.823 213.184,-137.199"/>
<polygon fill="black" stroke="black" points="215.525,-139.824 221.543,-131.104 211.4,-134.168 215.525,-139.824"/>
</g>
<!-- L(&#45;1) -->
<g id="node4" class="node"><title>L(&#45;1)</title>
<g id="a_node4"><a xlink:title="L">
<polygon fill="springgreen" stroke="black" points="368,-131 314,-131 314,-95 368,-95 368,-131"/>
<text text-anchor="start" x="321" y="-108.8" font-family="Times New Roman,serif" font-size="14.00" fill="blue">L(&#45;1):L</text>
</a>
</g>
</g>
<!-- L -->
<g id="node6" class="node"><title>L</title>
<g id="a_node6"><a xlink:title="L">
<polygon fill="#63b8ff" stroke="black" points="396,-203 342,-203 342,-167 396,-167 396,-203"/>
<text text-anchor="start" x="363" y="-180.8" font-family="Times New Roman,serif" font-size="14.00" fill="blue">L:</text>
</a>
</g>
</g>
<!-- L(&#45;1)&#45;&gt;L -->
<g id="edge8" class="edge"><title>L(&#45;1)&#45;&gt;L</title>
<path fill="none" stroke="black" d="M353.737,-131.104C357.66,-138.876 361.645,-148.257 364.772,-156.949"/>
<polygon fill="black" stroke="black" points="361.533,-158.3 367.994,-166.697 368.179,-156.103 361.533,-158.3"/>
</g>
<!-- SAVING_RATIO -->
<g id="node5" class="node"><title>SAVING_RATIO</title>
<g id="a_node5"><a xlink:title="SAVING_RATIO">
<polygon fill="yellow" stroke="black" points="345.5,-419 226.5,-419 226.5,-383 345.5,-383 345.5,-419"/>
<text text-anchor="start" x="233" y="-396.8" font-family="Times New Roman,serif" font-size="14.00" fill="blue">SAVING_RATIO:</text>
</a>
</g>
</g>
<!-- SAVING_RATIO&#45;&gt;C -->
<g id="edge7" class="edge"><title>SAVING_RATIO&#45;&gt;C</title>
<path fill="none" stroke="black" d="M286,-382.697C286,-374.983 286,-365.712 286,-357.112"/>
<polygon fill="black" stroke="black" points="289.5,-357.104 286,-347.104 282.5,-357.104 289.5,-357.104"/>
</g>
<!-- L&#45;&gt;Y -->
<g id="edge13" class="edge"><title>L&#45;&gt;Y</title>
<path fill="none" stroke="black" d="M341.788,-168.638C323.94,-158.563 300.405,-145.277 281.012,-134.329"/>
<polygon fill="black" stroke="black" points="282.578,-131.194 272.149,-129.326 279.137,-137.29 282.578,-131.194"/>
</g>
<!-- L&#45;&gt;L(&#45;1) -->
<g id="edge17" class="edge"><title>L&#45;&gt;L(&#45;1)</title>
<path fill="none" stroke="black" d="M356.163,-166.697C352.239,-158.898 348.261,-149.509 345.148,-140.829"/>
<polygon fill="black" stroke="black" points="348.398,-139.509 341.947,-131.104 341.749,-141.697 348.398,-139.509"/>
</g>
<!-- K_INTENSE -->
<g id="node7" class="node"><title>K_INTENSE</title>
<g id="a_node7"><a xlink:title="K_INTENSE">
<polygon fill="#63b8ff" stroke="black" points="267.5,-59 176.5,-59 176.5,-23 267.5,-23 267.5,-59"/>
<text text-anchor="start" x="183" y="-36.8" font-family="Times New Roman,serif" font-size="14.00" fill="blue">K_INTENSE:</text>
</a>
</g>
</g>
<!-- L&#45;&gt;K_INTENSE -->
<g id="edge11" class="edge"><title>L&#45;&gt;K_INTENSE</title>
<path fill="none" stroke="black" d="M376.692,-166.851C384.072,-147.528 392.067,-116.076 377,-95 354.57,-63.6255 312.408,-50.6186 277.713,-45.3236"/>
<polygon fill="black" stroke="black" points="278.061,-41.8389 267.683,-43.9707 277.125,-48.7761 278.061,-41.8389"/>
</g>
<!-- DEPRECIATES_RATE -->
<g id="node8" class="node"><title>DEPRECIATES_RATE</title>
<g id="a_node8"><a xlink:title="DEPRECIATES_RATE">
<polygon fill="yellow" stroke="black" points="154,-275 0,-275 0,-239 154,-239 154,-275"/>
<text text-anchor="start" x="6" y="-252.8" font-family="Times New Roman,serif" font-size="14.00" fill="blue">DEPRECIATES_RATE:</text>
</a>
</g>
</g>
<!-- K -->
<g id="node10" class="node"><title>K</title>
<g id="a_node10"><a xlink:title="K">
<polygon fill="#63b8ff" stroke="black" points="104,-203 50,-203 50,-167 104,-167 104,-203"/>
<text text-anchor="start" x="71" y="-180.8" font-family="Times New Roman,serif" font-size="14.00" fill="blue">K:</text>
</a>
</g>
</g>
<!-- DEPRECIATES_RATE&#45;&gt;K -->
<g id="edge4" class="edge"><title>DEPRECIATES_RATE&#45;&gt;K</title>
<path fill="none" stroke="black" d="M77,-238.697C77,-230.983 77,-221.712 77,-213.112"/>
<polygon fill="black" stroke="black" points="80.5001,-213.104 77,-203.104 73.5001,-213.104 80.5001,-213.104"/>
</g>
<!-- LABOR_GROWTH -->
<g id="node9" class="node"><title>LABOR_GROWTH</title>
<g id="a_node9"><a xlink:title="LABOR_GROWTH">
<polygon fill="yellow" stroke="black" points="475.5,-275 342.5,-275 342.5,-239 475.5,-239 475.5,-275"/>
<text text-anchor="start" x="349" y="-252.8" font-family="Times New Roman,serif" font-size="14.00" fill="blue">LABOR_GROWTH:</text>
</a>
</g>
</g>
<!-- LABOR_GROWTH&#45;&gt;L -->
<g id="edge15" class="edge"><title>LABOR_GROWTH&#45;&gt;L</title>
<path fill="none" stroke="black" d="M399.112,-238.697C394.511,-230.644 388.94,-220.894 383.847,-211.982"/>
<polygon fill="black" stroke="black" points="386.774,-210.05 378.774,-203.104 380.696,-213.523 386.774,-210.05"/>
</g>
<!-- K&#45;&gt;Y -->
<g id="edge12" class="edge"><title>K&#45;&gt;Y</title>
<path fill="none" stroke="black" d="M104.048,-171.017C107.057,-169.635 110.086,-168.272 113,-167 144.81,-153.118 181.478,-138.504 208.082,-128.146"/>
<polygon fill="black" stroke="black" points="209.696,-131.274 217.754,-124.395 207.165,-124.747 209.696,-131.274"/>
</g>
<!-- K&#45;&gt;K_INTENSE -->
<g id="edge14" class="edge"><title>K&#45;&gt;K_INTENSE</title>
<path fill="none" stroke="black" d="M69.0315,-166.864C61.3569,-147.554 52.9376,-116.113 68,-95 90.1947,-63.8893 131.88,-50.8557 166.289,-45.4831"/>
<polygon fill="black" stroke="black" points="166.814,-48.9438 176.24,-44.106 165.855,-42.0099 166.814,-48.9438"/>
</g>
<!-- K(&#45;1) -->
<g id="node11" class="node"><title>K(&#45;1)</title>
<g id="a_node11"><a xlink:title="K">
<polygon fill="springgreen" stroke="black" points="132.5,-131 77.5,-131 77.5,-95 132.5,-95 132.5,-131"/>
<text text-anchor="start" x="84" y="-108.8" font-family="Times New Roman,serif" font-size="14.00" fill="blue">K(&#45;1):K</text>
</a>
</g>
</g>
<!-- K&#45;&gt;K(&#45;1) -->
<g id="edge10" class="edge"><title>K&#45;&gt;K(&#45;1)</title>
<path fill="none" stroke="black" d="M78.0056,-166.697C80.371,-158.728 84.0079,-149.1 87.9348,-140.264"/>
<polygon fill="black" stroke="black" points="91.1552,-141.641 92.2632,-131.104 84.8262,-138.65 91.1552,-141.641"/>
</g>
<!-- K(&#45;1)&#45;&gt;K -->
<g id="edge16" class="edge"><title>K(&#45;1)&#45;&gt;K</title>
<path fill="none" stroke="black" d="M104.053,-131.104C101.709,-139.045 98.0854,-148.666 94.1634,-157.515"/>
<polygon fill="black" stroke="black" points="90.9333,-156.159 89.8371,-166.697 97.2656,-159.142 90.9333,-156.159"/>
</g>
<!-- I&#45;&gt;K -->
<g id="edge3" class="edge"><title>I&#45;&gt;K</title>
<path fill="none" stroke="black" d="M231.802,-246.974C204.107,-237.599 159.804,-222.099 113.326,-202.958"/>
<polygon fill="black" stroke="black" points="114.583,-199.691 104.006,-199.082 111.895,-206.154 114.583,-199.691"/>
</g>
<!-- A -->
<g id="node13" class="node"><title>A</title>
<g id="a_node13"><a xlink:title="A">
<polygon fill="yellow" stroke="black" points="248,-203 194,-203 194,-167 248,-167 248,-203"/>
<text text-anchor="start" x="215" y="-180.8" font-family="Times New Roman,serif" font-size="14.00" fill="blue">A:</text>
</a>
</g>
</g>
<!-- A&#45;&gt;Y -->
<g id="edge5" class="edge"><title>A&#45;&gt;Y</title>
<path fill="none" stroke="black" d="M226.933,-166.697C229.606,-158.898 232.826,-149.509 235.801,-140.829"/>
<polygon fill="black" stroke="black" points="239.203,-141.699 239.136,-131.104 232.582,-139.429 239.203,-141.699"/>
</g>
</g>
</svg>
