<?xml version="1.0" encoding="UTF-8" standalone="no"?>
<!DOCTYPE svg PUBLIC "-//W3C//DTD SVG 1.1//EN"
 "http://www.w3.org/Graphics/SVG/1.1/DTD/svg11.dtd">
<!-- Generated by graphviz version 2.38.0 (20140413.2041)
 -->
<!-- Title: TD Pages: 1 -->
<svg width="397pt" height="448pt"
 viewBox="0.00 0.00 397.00 448.00" xmlns="http://www.w3.org/2000/svg" xmlns:xlink="http://www.w3.org/1999/xlink">
<g id="graph0" class="graph" transform="scale(1 1) rotate(0) translate(4 444)">
<title>TD</title>
<polygon fill="white" stroke="none" points="-4,4 -4,-444 393,-444 393,4 -4,4"/>
<text text-anchor="middle" x="194.5" y="-7.8" font-family="Times New Roman,serif" font-size="14.00">FY explained</text>
<!-- FY -->
<g id="node1" class="node"><title>FY</title>
<polygon fill="Turquoise" stroke="black" points="389,-422 0,-422 0,-23 389,-23 389,-422"/>
<g id="a_node1_0"><a xlink:href="bogus" xlink:title="Bruttonationalproduktet">
<polygon fill="none" stroke="black" points="5.5,-395.5 5.5,-416.5 384.5,-416.5 384.5,-395.5 5.5,-395.5"/>
<text text-anchor="start" x="185.5" y="-402.3" font-family="Times New Roman,serif" font-size="14.00" fill="blue">FY</text>
</a>
</g>
<polygon fill="none" stroke="black" points="5.5,-372.5 5.5,-393.5 60.5,-393.5 60.5,-372.5 5.5,-372.5"/>
<text text-anchor="start" x="8.5" y="-379.3" font-family="Times New Roman,serif" font-size="14.00" fill="blue">Per</text>
<polygon fill="none" stroke="black" points="62.5,-372.5 62.5,-393.5 141.5,-393.5 141.5,-372.5 62.5,-372.5"/>
<text text-anchor="start" x="88" y="-379.3" font-family="Times New Roman,serif" font-size="14.00" fill="blue">2018</text>
<polygon fill="none" stroke="black" points="143.5,-372.5 143.5,-393.5 222.5,-393.5 222.5,-372.5 143.5,-372.5"/>
<text text-anchor="start" x="169" y="-379.3" font-family="Times New Roman,serif" font-size="14.00" fill="blue">2019</text>
<polygon fill="none" stroke="black" points="224.5,-372.5 224.5,-393.5 303.5,-393.5 303.5,-372.5 224.5,-372.5"/>
<text text-anchor="start" x="250" y="-379.3" font-family="Times New Roman,serif" font-size="14.00" fill="blue">2020</text>
<polygon fill="none" stroke="black" points="305.5,-372.5 305.5,-393.5 384.5,-393.5 384.5,-372.5 305.5,-372.5"/>
<text text-anchor="start" x="331" y="-379.3" font-family="Times New Roman,serif" font-size="14.00" fill="blue">2021</text>
<g id="a_node1_1"><a xlink:href="bogus" xlink:title="Base">
<polygon fill="none" stroke="black" points="5.5,-349.5 5.5,-370.5 60.5,-370.5 60.5,-349.5 5.5,-349.5"/>
<text text-anchor="start" x="8.5" y="-356.3" font-family="Times New Roman,serif" font-size="14.00" fill="blue">Base</text>
</a>
</g>
<polygon fill="none" stroke="black" points="62.5,-349.5 62.5,-370.5 141.5,-370.5 141.5,-349.5 62.5,-349.5"/>
<text text-anchor="start" x="65.5" y="-356.3" font-family="Times New Roman,serif" font-size="14.00" fill="blue">2,030,595.41</text>
<polygon fill="none" stroke="black" points="143.5,-349.5 143.5,-370.5 222.5,-370.5 222.5,-349.5 143.5,-349.5"/>
<text text-anchor="start" x="146.5" y="-356.3" font-family="Times New Roman,serif" font-size="14.00" fill="blue">2,028,206.45</text>
<polygon fill="none" stroke="black" points="224.5,-349.5 224.5,-370.5 303.5,-370.5 303.5,-349.5 224.5,-349.5"/>
<text text-anchor="start" x="227.5" y="-356.3" font-family="Times New Roman,serif" font-size="14.00" fill="blue">2,043,317.43</text>
<polygon fill="none" stroke="black" points="305.5,-349.5 305.5,-370.5 384.5,-370.5 384.5,-349.5 305.5,-349.5"/>
<text text-anchor="start" x="308.5" y="-356.3" font-family="Times New Roman,serif" font-size="14.00" fill="blue">2,061,846.87</text>
<g id="a_node1_2"><a xlink:href="bogus" xlink:title="Last">
<polygon fill="none" stroke="black" points="5.5,-326.5 5.5,-347.5 60.5,-347.5 60.5,-326.5 5.5,-326.5"/>
<text text-anchor="start" x="8.5" y="-333.3" font-family="Times New Roman,serif" font-size="14.00" fill="blue">Last</text>
</a>
</g>
<polygon fill="none" stroke="black" points="62.5,-326.5 62.5,-347.5 141.5,-347.5 141.5,-326.5 62.5,-326.5"/>
<text text-anchor="start" x="65.5" y="-333.3" font-family="Times New Roman,serif" font-size="14.00" fill="blue">2,030,208.47</text>
<polygon fill="none" stroke="black" points="143.5,-326.5 143.5,-347.5 222.5,-347.5 222.5,-326.5 143.5,-326.5"/>
<text text-anchor="start" x="146.5" y="-333.3" font-family="Times New Roman,serif" font-size="14.00" fill="blue">2,027,321.94</text>
<polygon fill="none" stroke="black" points="224.5,-326.5 224.5,-347.5 303.5,-347.5 303.5,-326.5 224.5,-326.5"/>
<text text-anchor="start" x="227.5" y="-333.3" font-family="Times New Roman,serif" font-size="14.00" fill="blue">2,041,943.93</text>
<polygon fill="none" stroke="black" points="305.5,-326.5 305.5,-347.5 384.5,-347.5 384.5,-326.5 305.5,-326.5"/>
<text text-anchor="start" x="308.5" y="-333.3" font-family="Times New Roman,serif" font-size="14.00" fill="blue">2,060,050.66</text>
<g id="a_node1_3"><a xlink:href="bogus" xlink:title="Diff">
<polygon fill="none" stroke="black" points="5.5,-303.5 5.5,-324.5 60.5,-324.5 60.5,-303.5 5.5,-303.5"/>
<text text-anchor="start" x="8.5" y="-310.3" font-family="Times New Roman,serif" font-size="14.00" fill="blue">Diff</text>
</a>
</g>
<polygon fill="none" stroke="black" points="62.5,-303.5 62.5,-324.5 141.5,-324.5 141.5,-303.5 62.5,-303.5"/>
<text text-anchor="start" x="95.5" y="-310.3" font-family="Times New Roman,serif" font-size="14.00" fill="blue">&#45;386.94</text>
<polygon fill="none" stroke="black" points="143.5,-303.5 143.5,-324.5 222.5,-324.5 222.5,-303.5 143.5,-303.5"/>
<text text-anchor="start" x="176.5" y="-310.3" font-family="Times New Roman,serif" font-size="14.00" fill="blue">&#45;884.51</text>
<polygon fill="none" stroke="black" points="224.5,-303.5 224.5,-324.5 303.5,-324.5 303.5,-303.5 224.5,-303.5"/>
<text text-anchor="start" x="247.5" y="-310.3" font-family="Times New Roman,serif" font-size="14.00" fill="blue">&#45;1,373.50</text>
<polygon fill="none" stroke="black" points="305.5,-303.5 305.5,-324.5 384.5,-324.5 384.5,-303.5 305.5,-303.5"/>
<text text-anchor="start" x="328.5" y="-310.3" font-family="Times New Roman,serif" font-size="14.00" fill="blue">&#45;1,796.21</text>
<polygon fill="none" stroke="black" points="5.5,-280.5 5.5,-301.5 384.5,-301.5 384.5,-280.5 5.5,-280.5"/>
<text text-anchor="start" x="148.5" y="-287.3" font-family="Times New Roman,serif" font-size="14.00" fill="blue"> % Explained by</text>
<g id="a_node1_4"><a xlink:href="bogus" xlink:title="Prisen p책 Y">
<polygon fill="none" stroke="black" points="5.5,-257.5 5.5,-278.5 60.5,-278.5 60.5,-257.5 5.5,-257.5"/>
<text text-anchor="start" x="8.5" y="-264.3" font-family="Times New Roman,serif" font-size="14.00" fill="blue">PY(&#45;1)</text>
</a>
</g>
<polygon fill="none" stroke="black" points="62.5,-257.5 62.5,-278.5 141.5,-278.5 141.5,-257.5 62.5,-257.5"/>
<text text-anchor="start" x="109.5" y="-264.3" font-family="Times New Roman,serif" font-size="14.00" fill="blue">&#45;0.00</text>
<polygon fill="none" stroke="black" points="143.5,-257.5 143.5,-278.5 222.5,-278.5 222.5,-257.5 143.5,-257.5"/>
<text text-anchor="start" x="188.5" y="-264.3" font-family="Times New Roman,serif" font-size="14.00" fill="blue">99.44</text>
<polygon fill="none" stroke="black" points="224.5,-257.5 224.5,-278.5 303.5,-278.5 303.5,-257.5 224.5,-257.5"/>
<text text-anchor="start" x="262.5" y="-264.3" font-family="Times New Roman,serif" font-size="14.00" fill="blue">157.86</text>
<polygon fill="none" stroke="black" points="305.5,-257.5 305.5,-278.5 384.5,-278.5 384.5,-257.5 305.5,-257.5"/>
<text text-anchor="start" x="343.5" y="-264.3" font-family="Times New Roman,serif" font-size="14.00" fill="blue">187.85</text>
<g id="a_node1_5"><a xlink:href="bogus" xlink:title="Eksport af varer og tjenester i alt">
<polygon fill="none" stroke="black" points="5.5,-234.5 5.5,-255.5 60.5,-255.5 60.5,-234.5 5.5,-234.5"/>
<text text-anchor="start" x="8.5" y="-241.3" font-family="Times New Roman,serif" font-size="14.00" fill="blue">FE</text>
</a>
</g>
<polygon fill="none" stroke="black" points="62.5,-234.5 62.5,-255.5 141.5,-255.5 141.5,-234.5 62.5,-234.5"/>
<text text-anchor="start" x="107.5" y="-241.3" font-family="Times New Roman,serif" font-size="14.00" fill="blue">42.79</text>
<polygon fill="none" stroke="black" points="143.5,-234.5 143.5,-255.5 222.5,-255.5 222.5,-234.5 143.5,-234.5"/>
<text text-anchor="start" x="188.5" y="-241.3" font-family="Times New Roman,serif" font-size="14.00" fill="blue">53.76</text>
<polygon fill="none" stroke="black" points="224.5,-234.5 224.5,-255.5 303.5,-255.5 303.5,-234.5 224.5,-234.5"/>
<text text-anchor="start" x="269.5" y="-241.3" font-family="Times New Roman,serif" font-size="14.00" fill="blue">61.08</text>
<polygon fill="none" stroke="black" points="305.5,-234.5 305.5,-255.5 384.5,-255.5 384.5,-234.5 305.5,-234.5"/>
<text text-anchor="start" x="350.5" y="-241.3" font-family="Times New Roman,serif" font-size="14.00" fill="blue">69.64</text>
<g id="a_node1_6"><a xlink:href="bogus" xlink:title="Investeringer i alt">
<polygon fill="none" stroke="black" points="5.5,-211.5 5.5,-232.5 60.5,-232.5 60.5,-211.5 5.5,-211.5"/>
<text text-anchor="start" x="8.5" y="-218.3" font-family="Times New Roman,serif" font-size="14.00" fill="blue">FI</text>
</a>
</g>
<polygon fill="none" stroke="black" points="62.5,-211.5 62.5,-232.5 141.5,-232.5 141.5,-211.5 62.5,-211.5"/>
<text text-anchor="start" x="107.5" y="-218.3" font-family="Times New Roman,serif" font-size="14.00" fill="blue">32.42</text>
<polygon fill="none" stroke="black" points="143.5,-211.5 143.5,-232.5 222.5,-232.5 222.5,-211.5 143.5,-211.5"/>
<text text-anchor="start" x="188.5" y="-218.3" font-family="Times New Roman,serif" font-size="14.00" fill="blue">35.31</text>
<polygon fill="none" stroke="black" points="224.5,-211.5 224.5,-232.5 303.5,-232.5 303.5,-211.5 224.5,-211.5"/>
<text text-anchor="start" x="269.5" y="-218.3" font-family="Times New Roman,serif" font-size="14.00" fill="blue">35.72</text>
<polygon fill="none" stroke="black" points="305.5,-211.5 305.5,-232.5 384.5,-232.5 384.5,-211.5 305.5,-211.5"/>
<text text-anchor="start" x="350.5" y="-218.3" font-family="Times New Roman,serif" font-size="14.00" fill="blue">35.11</text>
<g id="a_node1_7"><a xlink:href="bogus" xlink:title="Privat forbrug i alt">
<polygon fill="none" stroke="black" points="5.5,-188.5 5.5,-209.5 60.5,-209.5 60.5,-188.5 5.5,-188.5"/>
<text text-anchor="start" x="8.5" y="-195.3" font-family="Times New Roman,serif" font-size="14.00" fill="blue">FCP</text>
</a>
</g>
<polygon fill="none" stroke="black" points="62.5,-188.5 62.5,-209.5 141.5,-209.5 141.5,-188.5 62.5,-188.5"/>
<text text-anchor="start" x="107.5" y="-195.3" font-family="Times New Roman,serif" font-size="14.00" fill="blue">65.32</text>
<polygon fill="none" stroke="black" points="143.5,-188.5 143.5,-209.5 222.5,-209.5 222.5,-188.5 143.5,-188.5"/>
<text text-anchor="start" x="188.5" y="-195.3" font-family="Times New Roman,serif" font-size="14.00" fill="blue">47.58</text>
<polygon fill="none" stroke="black" points="224.5,-188.5 224.5,-209.5 303.5,-209.5 303.5,-188.5 224.5,-188.5"/>
<text text-anchor="start" x="269.5" y="-195.3" font-family="Times New Roman,serif" font-size="14.00" fill="blue">39.31</text>
<polygon fill="none" stroke="black" points="305.5,-188.5 305.5,-209.5 384.5,-209.5 384.5,-188.5 305.5,-188.5"/>
<text text-anchor="start" x="350.5" y="-195.3" font-family="Times New Roman,serif" font-size="14.00" fill="blue">29.96</text>
<g id="a_node1_8"><a xlink:href="bogus" xlink:title="Prisen p책 M">
<polygon fill="none" stroke="black" points="5.5,-165.5 5.5,-186.5 60.5,-186.5 60.5,-165.5 5.5,-165.5"/>
<text text-anchor="start" x="8.5" y="-172.3" font-family="Times New Roman,serif" font-size="14.00" fill="blue">PM(&#45;1)</text>
</a>
</g>
<polygon fill="none" stroke="black" points="62.5,-165.5 62.5,-186.5 141.5,-186.5 141.5,-165.5 62.5,-165.5"/>
<text text-anchor="start" x="109.5" y="-172.3" font-family="Times New Roman,serif" font-size="14.00" fill="blue">&#45;0.00</text>
<polygon fill="none" stroke="black" points="143.5,-165.5 143.5,-186.5 222.5,-186.5 222.5,-165.5 143.5,-165.5"/>
<text text-anchor="start" x="190.5" y="-172.3" font-family="Times New Roman,serif" font-size="14.00" fill="blue">&#45;0.00</text>
<polygon fill="none" stroke="black" points="224.5,-165.5 224.5,-186.5 303.5,-186.5 303.5,-165.5 224.5,-165.5"/>
<text text-anchor="start" x="271.5" y="-172.3" font-family="Times New Roman,serif" font-size="14.00" fill="blue">&#45;0.00</text>
<polygon fill="none" stroke="black" points="305.5,-165.5 305.5,-186.5 384.5,-186.5 384.5,-165.5 305.5,-165.5"/>
<text text-anchor="start" x="352.5" y="-172.3" font-family="Times New Roman,serif" font-size="14.00" fill="blue">&#45;0.00</text>
<g id="a_node1_9"><a xlink:href="bogus" xlink:title="Offentligt forbrug">
<polygon fill="none" stroke="black" points="5.5,-142.5 5.5,-163.5 60.5,-163.5 60.5,-142.5 5.5,-142.5"/>
<text text-anchor="start" x="8.5" y="-149.3" font-family="Times New Roman,serif" font-size="14.00" fill="blue">FCO</text>
</a>
</g>
<polygon fill="none" stroke="black" points="62.5,-142.5 62.5,-163.5 141.5,-163.5 141.5,-142.5 62.5,-142.5"/>
<text text-anchor="start" x="109.5" y="-149.3" font-family="Times New Roman,serif" font-size="14.00" fill="blue">&#45;3.78</text>
<polygon fill="none" stroke="black" points="143.5,-142.5 143.5,-163.5 222.5,-163.5 222.5,-142.5 143.5,-142.5"/>
<text text-anchor="start" x="190.5" y="-149.3" font-family="Times New Roman,serif" font-size="14.00" fill="blue">&#45;3.60</text>
<polygon fill="none" stroke="black" points="224.5,-142.5 224.5,-163.5 303.5,-163.5 303.5,-142.5 224.5,-142.5"/>
<text text-anchor="start" x="271.5" y="-149.3" font-family="Times New Roman,serif" font-size="14.00" fill="blue">&#45;3.56</text>
<polygon fill="none" stroke="black" points="305.5,-142.5 305.5,-163.5 384.5,-163.5 384.5,-142.5 305.5,-142.5"/>
<text text-anchor="start" x="352.5" y="-149.3" font-family="Times New Roman,serif" font-size="14.00" fill="blue">&#45;3.43</text>
<g id="a_node1_10"><a xlink:href="bogus" xlink:title="Import af varer og tjenester i alt">
<polygon fill="none" stroke="black" points="5.5,-119.5 5.5,-140.5 60.5,-140.5 60.5,-119.5 5.5,-119.5"/>
<text text-anchor="start" x="8.5" y="-126.3" font-family="Times New Roman,serif" font-size="14.00" fill="blue">FM</text>
</a>
</g>
<polygon fill="none" stroke="black" points="62.5,-119.5 62.5,-140.5 141.5,-140.5 141.5,-119.5 62.5,-119.5"/>
<text text-anchor="start" x="102.5" y="-126.3" font-family="Times New Roman,serif" font-size="14.00" fill="blue">&#45;36.75</text>
<polygon fill="none" stroke="black" points="143.5,-119.5 143.5,-140.5 222.5,-140.5 222.5,-119.5 143.5,-119.5"/>
<text text-anchor="start" x="183.5" y="-126.3" font-family="Times New Roman,serif" font-size="14.00" fill="blue">&#45;31.82</text>
<polygon fill="none" stroke="black" points="224.5,-119.5 224.5,-140.5 303.5,-140.5 303.5,-119.5 224.5,-119.5"/>
<text text-anchor="start" x="264.5" y="-126.3" font-family="Times New Roman,serif" font-size="14.00" fill="blue">&#45;29.85</text>
<polygon fill="none" stroke="black" points="305.5,-119.5 305.5,-140.5 384.5,-140.5 384.5,-119.5 305.5,-119.5"/>
<text text-anchor="start" x="345.5" y="-126.3" font-family="Times New Roman,serif" font-size="14.00" fill="blue">&#45;27.74</text>
<g id="a_node1_11"><a xlink:href="bogus" xlink:title="Prisindeks for investeringer">
<polygon fill="none" stroke="black" points="5.5,-96.5 5.5,-117.5 60.5,-117.5 60.5,-96.5 5.5,-96.5"/>
<text text-anchor="start" x="8.5" y="-103.3" font-family="Times New Roman,serif" font-size="14.00" fill="blue">PI(&#45;1)</text>
</a>
</g>
<polygon fill="none" stroke="black" points="62.5,-96.5 62.5,-117.5 141.5,-117.5 141.5,-96.5 62.5,-96.5"/>
<text text-anchor="start" x="109.5" y="-103.3" font-family="Times New Roman,serif" font-size="14.00" fill="blue">&#45;0.00</text>
<polygon fill="none" stroke="black" points="143.5,-96.5 143.5,-117.5 222.5,-117.5 222.5,-96.5 143.5,-96.5"/>
<text text-anchor="start" x="183.5" y="-103.3" font-family="Times New Roman,serif" font-size="14.00" fill="blue">&#45;14.37</text>
<polygon fill="none" stroke="black" points="224.5,-96.5 224.5,-117.5 303.5,-117.5 303.5,-96.5 224.5,-96.5"/>
<text text-anchor="start" x="264.5" y="-103.3" font-family="Times New Roman,serif" font-size="14.00" fill="blue">&#45;23.88</text>
<polygon fill="none" stroke="black" points="305.5,-96.5 305.5,-117.5 384.5,-117.5 384.5,-96.5 305.5,-96.5"/>
<text text-anchor="start" x="345.5" y="-103.3" font-family="Times New Roman,serif" font-size="14.00" fill="blue">&#45;28.69</text>
<g id="a_node1_12"><a xlink:href="bogus" xlink:title="Prisen p책 E">
<polygon fill="none" stroke="black" points="5.5,-73.5 5.5,-94.5 60.5,-94.5 60.5,-73.5 5.5,-73.5"/>
<text text-anchor="start" x="8.5" y="-80.3" font-family="Times New Roman,serif" font-size="14.00" fill="blue">PE(&#45;1)</text>
</a>
</g>
<polygon fill="none" stroke="black" points="62.5,-73.5 62.5,-94.5 141.5,-94.5 141.5,-73.5 62.5,-73.5"/>
<text text-anchor="start" x="109.5" y="-80.3" font-family="Times New Roman,serif" font-size="14.00" fill="blue">&#45;0.00</text>
<polygon fill="none" stroke="black" points="143.5,-73.5 143.5,-94.5 222.5,-94.5 222.5,-73.5 143.5,-73.5"/>
<text text-anchor="start" x="183.5" y="-80.3" font-family="Times New Roman,serif" font-size="14.00" fill="blue">&#45;23.25</text>
<polygon fill="none" stroke="black" points="224.5,-73.5 224.5,-94.5 303.5,-94.5 303.5,-73.5 224.5,-73.5"/>
<text text-anchor="start" x="264.5" y="-80.3" font-family="Times New Roman,serif" font-size="14.00" fill="blue">&#45;37.83</text>
<polygon fill="none" stroke="black" points="305.5,-73.5 305.5,-94.5 384.5,-94.5 384.5,-73.5 305.5,-73.5"/>
<text text-anchor="start" x="345.5" y="-80.3" font-family="Times New Roman,serif" font-size="14.00" fill="blue">&#45;45.46</text>
<g id="a_node1_13"><a xlink:href="bogus" xlink:title="Nationalregnskabets forbrugerprisindeks">
<polygon fill="none" stroke="black" points="5.5,-50.5 5.5,-71.5 60.5,-71.5 60.5,-50.5 5.5,-50.5"/>
<text text-anchor="start" x="8.5" y="-57.3" font-family="Times New Roman,serif" font-size="14.00" fill="blue">PCP(&#45;1)</text>
</a>
</g>
<polygon fill="none" stroke="black" points="62.5,-50.5 62.5,-71.5 141.5,-71.5 141.5,-50.5 62.5,-50.5"/>
<text text-anchor="start" x="109.5" y="-57.3" font-family="Times New Roman,serif" font-size="14.00" fill="blue">&#45;0.00</text>
<polygon fill="none" stroke="black" points="143.5,-50.5 143.5,-71.5 222.5,-71.5 222.5,-50.5 143.5,-50.5"/>
<text text-anchor="start" x="183.5" y="-57.3" font-family="Times New Roman,serif" font-size="14.00" fill="blue">&#45;25.06</text>
<polygon fill="none" stroke="black" points="224.5,-50.5 224.5,-71.5 303.5,-71.5 303.5,-50.5 224.5,-50.5"/>
<text text-anchor="start" x="264.5" y="-57.3" font-family="Times New Roman,serif" font-size="14.00" fill="blue">&#45;41.53</text>
<polygon fill="none" stroke="black" points="305.5,-50.5 305.5,-71.5 384.5,-71.5 384.5,-50.5 305.5,-50.5"/>
<text text-anchor="start" x="345.5" y="-57.3" font-family="Times New Roman,serif" font-size="14.00" fill="blue">&#45;50.77</text>
<g id="a_node1_14"><a xlink:href="bogus" xlink:title="Prisen p책 Co">
<polygon fill="none" stroke="black" points="5.5,-27.5 5.5,-48.5 60.5,-48.5 60.5,-27.5 5.5,-27.5"/>
<text text-anchor="start" x="8.5" y="-34.3" font-family="Times New Roman,serif" font-size="14.00" fill="blue">PCO(&#45;1)</text>
</a>
</g>
<polygon fill="none" stroke="black" points="62.5,-27.5 62.5,-48.5 141.5,-48.5 141.5,-27.5 62.5,-27.5"/>
<text text-anchor="start" x="109.5" y="-34.3" font-family="Times New Roman,serif" font-size="14.00" fill="blue">&#45;0.00</text>
<polygon fill="none" stroke="black" points="143.5,-27.5 143.5,-48.5 222.5,-48.5 222.5,-27.5 143.5,-27.5"/>
<text text-anchor="start" x="183.5" y="-34.3" font-family="Times New Roman,serif" font-size="14.00" fill="blue">&#45;37.96</text>
<polygon fill="none" stroke="black" points="224.5,-27.5 224.5,-48.5 303.5,-48.5 303.5,-27.5 224.5,-27.5"/>
<text text-anchor="start" x="264.5" y="-34.3" font-family="Times New Roman,serif" font-size="14.00" fill="blue">&#45;57.19</text>
<polygon fill="none" stroke="black" points="305.5,-27.5 305.5,-48.5 384.5,-48.5 384.5,-27.5 305.5,-27.5"/>
<text text-anchor="start" x="345.5" y="-34.3" font-family="Times New Roman,serif" font-size="14.00" fill="blue">&#45;66.23</text>
<polygon fill="none" stroke="black" points="2,-25 2,-420 387,-420 387,-25 2,-25"/>
</g>
<!-- FY&#45;&gt;FY -->
<g id="edge1" class="edge"><title>FY&#45;&gt;FY</title>
<path fill="none" stroke="black" stroke-width="0.5" d="M145.412,-422.078C157.298,-433.307 173.66,-440 194.5,-440 211.107,-440 224.87,-435.75 235.791,-428.341"/>
<polygon fill="black" stroke="black" stroke-width="0.5" points="237.983,-431.07 243.588,-422.078 233.6,-425.612 237.983,-431.07"/>
</g>
</g>
</svg>
