<?xml version="1.0" encoding="UTF-8" standalone="no"?>
<!DOCTYPE svg PUBLIC "-//W3C//DTD SVG 1.1//EN"
 "http://www.w3.org/Graphics/SVG/1.1/DTD/svg11.dtd">
<!-- Generated by graphviz version 2.38.0 (20140413.2041)
 -->
<!-- Title: TD Pages: 1 -->
<svg width="720pt" height="507pt"
 viewBox="0.00 0.00 720.00 506.56" xmlns="http://www.w3.org/2000/svg" xmlns:xlink="http://www.w3.org/1999/xlink">
<g id="graph0" class="graph" transform="scale(0.916031 0.916031) rotate(0) translate(4 549)">
<title>TD</title>
<polygon fill="white" stroke="none" points="-4,4 -4,-549 782,-549 782,4 -4,4"/>
<text text-anchor="middle" x="389" y="-7.8" font-family="Times New Roman,serif" font-size="14.00">FY</text>
<!-- FCP -->
<g id="node1" class="node"><title>FCP</title>
<g id="a_node1"><a xlink:title="Privat forbrug i alt">
<polygon fill="#63b8ff" stroke="black" points="205,-545 62,-545 62,-509 205,-509 205,-545"/>
<text text-anchor="start" x="68.5" y="-522.8" font-family="Times New Roman,serif" font-size="14.00" fill="blue">FCP:Privat forbrug i alt</text>
</a>
</g>
</g>
<!-- FY -->
<g id="node10" class="node"><title>FY</title>
<g id="a_node10"><a xlink:title="Bruttonationalproduktet">
<polygon fill="Turquoise" stroke="black" points="469,-302 303,-302 303,-266 469,-266 469,-302"/>
<text text-anchor="start" x="309" y="-279.8" font-family="Times New Roman,serif" font-size="14.00" fill="blue">FY:Bruttonationalproduktet</text>
</a>
</g>
</g>
<!-- FCP&#45;&gt;FY -->
<g id="edge2" class="edge"><title>FCP&#45;&gt;FY</title>
<path fill="none" stroke="black" d="M205.197,-523.993C226.665,-520.228 249.246,-513.106 267,-500 331.402,-452.458 364.736,-358.831 377.986,-312.024"/>
<polygon fill="black" stroke="black" points="381.397,-312.816 380.652,-302.248 374.644,-310.974 381.397,-312.816"/>
</g>
<!-- FE -->
<g id="node2" class="node"><title>FE</title>
<g id="a_node2"><a xlink:title="Eksport af varer og tjenester i alt">
<polygon fill="#63b8ff" stroke="black" points="240,-491 27,-491 27,-455 240,-455 240,-491"/>
<text text-anchor="start" x="33.5" y="-468.8" font-family="Times New Roman,serif" font-size="14.00" fill="blue">FE:Eksport af varer og tjenester i alt</text>
</a>
</g>
</g>
<!-- FE&#45;&gt;FY -->
<g id="edge3" class="edge"><title>FE&#45;&gt;FY</title>
<path fill="none" stroke="black" d="M240.081,-459.116C249.565,-455.638 258.705,-451.33 267,-446 318.861,-412.675 355.456,-347.886 373.076,-311.144"/>
<polygon fill="black" stroke="black" points="376.283,-312.55 377.343,-302.008 369.94,-309.588 376.283,-312.55"/>
</g>
<!-- PI -->
<g id="node3" class="node"><title>PI</title>
<g id="a_node3"><a xlink:title="Prisindeks for investeringer">
<polygon fill="#63b8ff" stroke="black" points="223.5,-437 43.5,-437 43.5,-401 223.5,-401 223.5,-437"/>
<text text-anchor="start" x="49.5" y="-414.8" font-family="Times New Roman,serif" font-size="14.00" fill="blue">PI:Prisindeks for investeringer</text>
</a>
</g>
</g>
<!-- PI&#45;&gt;FY -->
<g id="edge7" class="edge"><title>PI&#45;&gt;FY</title>
<path fill="none" stroke="black" d="M223.704,-407.726C238.637,-403.916 253.612,-398.819 267,-392 306.523,-371.869 342.66,-334.819 364.252,-309.798"/>
<polygon fill="black" stroke="black" points="366.95,-312.028 370.737,-302.133 361.606,-307.506 366.95,-312.028"/>
</g>
<!-- PM -->
<g id="node4" class="node"><title>PM</title>
<g id="a_node4"><a xlink:title="Prisen p&#229; M">
<polygon fill="#63b8ff" stroke="black" points="185,-383 82,-383 82,-347 185,-347 185,-383"/>
<text text-anchor="start" x="88.5" y="-360.8" font-family="Times New Roman,serif" font-size="14.00" fill="blue">PM:Prisen på M</text>
</a>
</g>
</g>
<!-- PM&#45;&gt;FY -->
<g id="edge13" class="edge"><title>PM&#45;&gt;FY</title>
<path fill="none" stroke="black" d="M185.221,-357.461C210.197,-353.047 240.55,-346.622 267,-338 292.584,-329.661 319.98,-317.349 341.929,-306.586"/>
<polygon fill="black" stroke="black" points="343.586,-309.671 350.981,-302.084 340.469,-303.403 343.586,-309.671"/>
</g>
<!-- FI -->
<g id="node5" class="node"><title>FI</title>
<g id="a_node5"><a xlink:title="Investeringer i alt">
<polygon fill="#63b8ff" stroke="black" points="195,-329 72,-329 72,-293 195,-293 195,-329"/>
<text text-anchor="start" x="78.5" y="-306.8" font-family="Times New Roman,serif" font-size="14.00" fill="blue">FI:Investeringer i alt</text>
</a>
</g>
</g>
<!-- FI&#45;&gt;FY -->
<g id="edge5" class="edge"><title>FI&#45;&gt;FY</title>
<path fill="none" stroke="black" d="M195.139,-304.464C224.402,-301.31 260.144,-297.458 292.691,-293.949"/>
<polygon fill="black" stroke="black" points="293.111,-297.425 302.679,-292.873 292.361,-290.465 293.111,-297.425"/>
</g>
<!-- QFY -->
<g id="node6" class="node"><title>QFY</title>
<g id="a_node6"><a xlink:title="Bruttonationalproduktion per besk&#230;ftiget">
<polygon fill="#63b8ff" stroke="black" points="778,-491 505,-491 505,-455 778,-455 778,-491"/>
<text text-anchor="start" x="511.5" y="-468.8" font-family="Times New Roman,serif" font-size="14.00" fill="blue">QFY:Bruttonationalproduktion per beskæftiget</text>
</a>
</g>
</g>
<!-- FYTR -->
<g id="node7" class="node"><title>FYTR</title>
<g id="a_node7"><a xlink:title="Indenlandsk eftersp&#248;rgsel">
<polygon fill="#63b8ff" stroke="black" points="739.5,-437 543.5,-437 543.5,-401 739.5,-401 739.5,-437"/>
<text text-anchor="start" x="549.5" y="-414.8" font-family="Times New Roman,serif" font-size="14.00" fill="blue">FYTR:Indenlandsk efterspørgsel</text>
</a>
</g>
</g>
<!-- FCO -->
<g id="node8" class="node"><title>FCO</title>
<g id="a_node8"><a xlink:title="Offentligt forbrug">
<polygon fill="#63b8ff" stroke="black" points="204.5,-275 62.5,-275 62.5,-239 204.5,-239 204.5,-275"/>
<text text-anchor="start" x="68.5" y="-252.8" font-family="Times New Roman,serif" font-size="14.00" fill="blue">FCO:Offentligt forbrug</text>
</a>
</g>
</g>
<!-- FCO&#45;&gt;FY -->
<g id="edge10" class="edge"><title>FCO&#45;&gt;FY</title>
<path fill="none" stroke="black" d="M204.611,-264.557C231.93,-267.501 263.622,-270.917 292.75,-274.057"/>
<polygon fill="black" stroke="black" points="292.617,-277.563 302.934,-275.155 293.367,-270.603 292.617,-277.563"/>
</g>
<!-- FM -->
<g id="node9" class="node"><title>FM</title>
<g id="a_node9"><a xlink:title="Import af varer og tjenester i alt">
<polygon fill="#63b8ff" stroke="black" points="239,-221 28,-221 28,-185 239,-185 239,-221"/>
<text text-anchor="start" x="34.5" y="-198.8" font-family="Times New Roman,serif" font-size="14.00" fill="blue">FM:Import af varer og tjenester i alt</text>
</a>
</g>
</g>
<!-- FM&#45;&gt;FY -->
<g id="edge1" class="edge"><title>FM&#45;&gt;FY</title>
<path fill="none" stroke="black" d="M235.331,-221.03C246.113,-223.703 256.844,-226.69 267,-230 292.584,-238.339 319.98,-250.651 341.929,-261.414"/>
<polygon fill="black" stroke="black" points="340.469,-264.597 350.981,-265.916 343.586,-258.329 340.469,-264.597"/>
</g>
<!-- FY&#45;&gt;QFY -->
<g id="edge6" class="edge"><title>FY&#45;&gt;QFY</title>
<path fill="none" stroke="black" d="M394.643,-302.031C410.087,-336.116 448.426,-409.819 505,-446 507.463,-447.575 509.998,-449.061 512.594,-450.464"/>
<polygon fill="black" stroke="black" points="511.115,-453.637 521.632,-454.916 514.208,-447.357 511.115,-453.637"/>
</g>
<!-- FY&#45;&gt;FYTR -->
<g id="edge9" class="edge"><title>FY&#45;&gt;FYTR</title>
<path fill="none" stroke="black" d="M401.249,-302.16C421.528,-326.661 461.151,-369.785 505,-392 513.907,-396.512 523.499,-400.271 533.319,-403.402"/>
<polygon fill="black" stroke="black" points="532.616,-406.844 543.198,-406.328 534.604,-400.132 532.616,-406.844"/>
</g>
<!-- RFY -->
<g id="node12" class="node"><title>RFY</title>
<g id="a_node12"><a xlink:title="RFY">
<polygon fill="#63b8ff" stroke="black" points="668.5,-383 614.5,-383 614.5,-347 668.5,-347 668.5,-383"/>
<text text-anchor="start" x="626.5" y="-360.8" font-family="Times New Roman,serif" font-size="14.00" fill="blue">RFY:</text>
</a>
</g>
</g>
<!-- FY&#45;&gt;RFY -->
<g id="edge15" class="edge"><title>FY&#45;&gt;RFY</title>
<path fill="none" stroke="black" d="M421.005,-302.126C444.136,-313.809 475.741,-328.533 505,-338 537.884,-348.64 576.678,-355.856 604.311,-360.132"/>
<polygon fill="black" stroke="black" points="603.911,-363.611 614.319,-361.628 604.946,-356.688 603.911,-363.611"/>
</g>
<!-- BFM -->
<g id="node15" class="node"><title>BFM</title>
<g id="a_node15"><a xlink:title="BFM">
<polygon fill="#63b8ff" stroke="black" points="668.5,-329 614.5,-329 614.5,-293 668.5,-293 668.5,-329"/>
<text text-anchor="start" x="625.5" y="-306.8" font-family="Times New Roman,serif" font-size="14.00" fill="blue">BFM:</text>
</a>
</g>
</g>
<!-- FY&#45;&gt;BFM -->
<g id="edge14" class="edge"><title>FY&#45;&gt;BFM</title>
<path fill="none" stroke="black" d="M469.304,-292.766C514.767,-297.608 568.965,-303.381 604.018,-307.114"/>
<polygon fill="black" stroke="black" points="603.936,-310.625 614.251,-308.204 604.678,-303.665 603.936,-310.625"/>
</g>
<!-- TJKFYF -->
<g id="node16" class="node"><title>TJKFYF</title>
<g id="a_node16"><a xlink:title="TJKFYF">
<polygon fill="#63b8ff" stroke="black" points="674.5,-275 608.5,-275 608.5,-239 674.5,-239 674.5,-275"/>
<text text-anchor="start" x="614.5" y="-252.8" font-family="Times New Roman,serif" font-size="14.00" fill="blue">TJKFYF:</text>
</a>
</g>
</g>
<!-- FY&#45;&gt;TJKFYF -->
<g id="edge8" class="edge"><title>FY&#45;&gt;TJKFYF</title>
<path fill="none" stroke="black" d="M469.304,-275.234C512.278,-270.657 563.056,-265.248 598.092,-261.517"/>
<polygon fill="black" stroke="black" points="598.861,-264.955 608.434,-260.415 598.12,-257.994 598.861,-264.955"/>
</g>
<!-- FYST -->
<g id="node17" class="node"><title>FYST</title>
<g id="a_node17"><a xlink:title="Samlet tilgang til dansk &#248;konomik">
<polygon fill="#63b8ff" stroke="black" points="760.5,-221 522.5,-221 522.5,-185 760.5,-185 760.5,-221"/>
<text text-anchor="start" x="528.5" y="-198.8" font-family="Times New Roman,serif" font-size="14.00" fill="blue">FYST:Samlet tilgang til dansk økonomik</text>
</a>
</g>
</g>
<!-- FY&#45;&gt;FYST -->
<g id="edge4" class="edge"><title>FY&#45;&gt;FYST</title>
<path fill="none" stroke="black" d="M421.005,-265.874C444.136,-254.191 475.741,-239.467 505,-230 512.141,-227.69 519.56,-225.54 527.083,-223.548"/>
<polygon fill="black" stroke="black" points="528.191,-226.878 537.019,-221.018 526.464,-220.094 528.191,-226.878"/>
</g>
<!-- PY -->
<g id="node18" class="node"><title>PY</title>
<g id="a_node18"><a xlink:title="Prisen p&#229; Y">
<polygon fill="#63b8ff" stroke="black" points="691,-167 592,-167 592,-131 691,-131 691,-167"/>
<text text-anchor="start" x="598.5" y="-144.8" font-family="Times New Roman,serif" font-size="14.00" fill="blue">PY:Prisen på Y</text>
</a>
</g>
</g>
<!-- FY&#45;&gt;PY -->
<g id="edge18" class="edge"><title>FY&#45;&gt;PY</title>
<path fill="none" stroke="black" d="M397.1,-265.6C415.73,-238.787 457.931,-190.846 505,-167 528.602,-155.043 557.021,-148.377 581.724,-145.383"/>
<polygon fill="black" stroke="black" points="582.114,-148.861 591.7,-144.35 581.393,-141.898 582.114,-148.861"/>
</g>
<!-- PCO -->
<g id="node11" class="node"><title>PCO</title>
<g id="a_node11"><a xlink:title="Prisen p&#229; Co">
<polygon fill="#63b8ff" stroke="black" points="192,-167 75,-167 75,-131 192,-131 192,-167"/>
<text text-anchor="start" x="81.5" y="-144.8" font-family="Times New Roman,serif" font-size="14.00" fill="blue">PCO:Prisen på Co</text>
</a>
</g>
</g>
<!-- PCO&#45;&gt;FY -->
<g id="edge11" class="edge"><title>PCO&#45;&gt;FY</title>
<path fill="none" stroke="black" d="M192.179,-153.892C216.29,-157.646 243.989,-164.279 267,-176 306.523,-196.131 342.66,-233.181 364.252,-258.202"/>
<polygon fill="black" stroke="black" points="361.606,-260.494 370.737,-265.867 366.95,-255.972 361.606,-260.494"/>
</g>
<!-- PCP -->
<g id="node13" class="node"><title>PCP</title>
<g id="a_node13"><a xlink:title="Nationalregnskabets forbrugerprisindeks">
<polygon fill="#63b8ff" stroke="black" points="267,-113 0,-113 0,-77 267,-77 267,-113"/>
<text text-anchor="start" x="6.5" y="-90.8" font-family="Times New Roman,serif" font-size="14.00" fill="blue">PCP:Nationalregnskabets forbrugerprisindeks</text>
</a>
</g>
</g>
<!-- PCP&#45;&gt;FY -->
<g id="edge17" class="edge"><title>PCP&#45;&gt;FY</title>
<path fill="none" stroke="black" d="M250.416,-113.083C256.196,-115.681 261.766,-118.637 267,-122 318.861,-155.325 355.456,-220.114 373.076,-256.856"/>
<polygon fill="black" stroke="black" points="369.94,-258.412 377.343,-265.992 376.283,-255.45 369.94,-258.412"/>
</g>
<!-- PE -->
<g id="node14" class="node"><title>PE</title>
<g id="a_node14"><a xlink:title="Prisen p&#229; E">
<polygon fill="#63b8ff" stroke="black" points="181.5,-59 85.5,-59 85.5,-23 181.5,-23 181.5,-59"/>
<text text-anchor="start" x="91.5" y="-36.8" font-family="Times New Roman,serif" font-size="14.00" fill="blue">PE:Prisen på E</text>
</a>
</g>
</g>
<!-- PE&#45;&gt;FY -->
<g id="edge12" class="edge"><title>PE&#45;&gt;FY</title>
<path fill="none" stroke="black" d="M181.669,-41.0363C208.922,-43.2466 242.541,-49.9441 267,-68 331.402,-115.542 364.736,-209.169 377.986,-255.976"/>
<polygon fill="black" stroke="black" points="374.644,-257.026 380.652,-265.752 381.397,-255.184 374.644,-257.026"/>
</g>
<!-- PY&#45;&gt;FY -->
<g id="edge16" class="edge"><title>PY&#45;&gt;FY</title>
<path fill="none" stroke="black" d="M591.7,-160.229C564.943,-164.641 531.854,-171.395 505,-185 468.943,-203.267 435.744,-235.673 413.807,-258.582"/>
<polygon fill="black" stroke="black" points="411.157,-256.29 406.812,-265.953 416.235,-261.109 411.157,-256.29"/>
</g>
</g>
</svg>
