<?xml version="1.0" encoding="UTF-8" standalone="no"?>
<!DOCTYPE svg PUBLIC "-//W3C//DTD SVG 1.1//EN"
 "http://www.w3.org/Graphics/SVG/1.1/DTD/svg11.dtd">
<!-- Generated by graphviz version 2.38.0 (20140413.2041)
 -->
<!-- Title: TD Pages: 1 -->
<svg width="332pt" height="121pt"
 viewBox="0.00 0.00 332.00 121.00" xmlns="http://www.w3.org/2000/svg" xmlns:xlink="http://www.w3.org/1999/xlink">
<g id="graph0" class="graph" transform="scale(1 1) rotate(0) translate(4 117)">
<title>TD</title>
<polygon fill="white" stroke="none" points="-4,4 -4,-117 328,-117 328,4 -4,4"/>
<text text-anchor="middle" x="162" y="-7.8" font-family="Times New Roman,serif" font-size="14.00">IMO</text>
<!-- PIO -->
<g id="node1" class="node"><title>PIO</title>
<g id="a_node1"><a xlink:title="Prisindeks for investeringer i offentlige tjenester">
<polygon fill="#63b8ff" stroke="black" points="324,-86 270,-86 270,-50 324,-50 324,-86"/>
<text text-anchor="start" x="285" y="-63.8" font-family="Times New Roman,serif" font-size="14.00" fill="blue">PIO</text>
</a>
</g>
</g>
<!-- IO -->
<g id="node2" class="node"><title>IO</title>
<g id="a_node2"><a xlink:title="Investeringer i offentlige tjenester">
<polygon fill="#63b8ff" stroke="black" points="234,-86 180,-86 180,-50 234,-50 234,-86"/>
<text text-anchor="start" x="199" y="-63.8" font-family="Times New Roman,serif" font-size="14.00" fill="blue">IO</text>
</a>
</g>
</g>
<!-- IO&#45;&gt;PIO -->
<g id="edge2" class="edge"><title>IO&#45;&gt;PIO</title>
<path fill="none" stroke="black" d="M234.403,-68C242.393,-68 251.311,-68 259.824,-68"/>
<polygon fill="black" stroke="black" points="259.919,-71.5001 269.919,-68 259.919,-64.5001 259.919,-71.5001"/>
</g>
<!-- IMO -->
<g id="node3" class="node"><title>IMO</title>
<g id="a_node3"><a xlink:title="Investeringer i maskiner, transportmidler og inventar i erhverv o, for definition af erhverv o jf. fIbo">
<polygon fill="Turquoise" stroke="black" points="144,-86 90,-86 90,-50 144,-50 144,-86"/>
<text text-anchor="start" x="103" y="-63.8" font-family="Times New Roman,serif" font-size="14.00" fill="blue">IMO</text>
</a>
</g>
</g>
<!-- IMO&#45;&gt;IO -->
<g id="edge3" class="edge"><title>IMO&#45;&gt;IO</title>
<path fill="none" stroke="black" d="M144.403,-68C152.393,-68 161.311,-68 169.824,-68"/>
<polygon fill="black" stroke="black" points="169.919,-71.5001 179.919,-68 169.919,-64.5001 169.919,-71.5001"/>
</g>
<!-- FIMO -->
<g id="node4" class="node"><title>FIMO</title>
<g id="a_node4"><a xlink:title="Investeringer i maskiner, transportmidler og inventar i erhverv o, for definition af erhverv o jf. fIbo">
<polygon fill="#63b8ff" stroke="black" points="54,-113 0,-113 0,-77 54,-77 54,-113"/>
<text text-anchor="start" x="9" y="-90.8" font-family="Times New Roman,serif" font-size="14.00" fill="blue">FIMO</text>
</a>
</g>
</g>
<!-- FIMO&#45;&gt;IMO -->
<g id="edge4" class="edge"><title>FIMO&#45;&gt;IMO</title>
<path fill="none" stroke="black" d="M54.4029,-86.8991C62.481,-84.4206 71.5067,-81.6514 80.1046,-79.0134"/>
<polygon fill="black" stroke="black" points="81.3855,-82.2815 89.919,-76.0021 79.3322,-75.5894 81.3855,-82.2815"/>
</g>
<!-- PIMO -->
<g id="node5" class="node"><title>PIMO</title>
<g id="a_node5"><a xlink:title="Prisindeks for fImo, for definition af erhverv o jf. fIbo">
<polygon fill="#63b8ff" stroke="black" points="54,-59 0,-59 0,-23 54,-23 54,-59"/>
<text text-anchor="start" x="9" y="-36.8" font-family="Times New Roman,serif" font-size="14.00" fill="blue">PIMO</text>
</a>
</g>
</g>
<!-- PIMO&#45;&gt;IMO -->
<g id="edge1" class="edge"><title>PIMO&#45;&gt;IMO</title>
<path fill="none" stroke="black" d="M54.4029,-49.1009C62.481,-51.5794 71.5067,-54.3486 80.1046,-56.9866"/>
<polygon fill="black" stroke="black" points="79.3322,-60.4106 89.919,-59.9979 81.3855,-53.7185 79.3322,-60.4106"/>
</g>
</g>
</svg>
